<svg width="400" height="100" viewBox="0 0 400 100" fill="none" xmlns="http://www.w3.org/2000/svg">
  <!-- Logo Icon -->
  <circle cx="50" cy="50" r="45" fill="url(#gradient1)" />
  
  <defs>
    <linearGradient id="gradient1" x1="0%" y1="0%" x2="100%" y2="100%">
      <stop offset="0%" style="stop-color:#2563eb;stop-opacity:1" />
      <stop offset="100%" style="stop-color:#7c3aed;stop-opacity:1" />
    </linearGradient>
  </defs>
  
  <!-- Dollar Sign -->
  <path d="M50 25 L50 22 M50 70 L50 73" stroke="white" stroke-width="2.5" stroke-linecap="round"/>
  <path d="M47 30 C47 27 47 25 50 25 C53 25 56 26 56 30 C56 34 53 36 50 37 L47 38 C44 39 42 41 42 45 C42 49 45 51 47 51 L50 51 C53 51 56 52 56 56 C56 60 53 61 50 62 C47 63 44 62 44 59" stroke="white" stroke-width="3" stroke-linecap="round" stroke-linejoin="round" fill="none"/>
  
  <!-- Bars -->
  <rect x="27" y="57" width="6" height="15" fill="white" opacity="0.9" rx="1"/>
  <rect x="36" y="50" width="6" height="22" fill="white" opacity="0.9" rx="1"/>
  <rect x="58" y="45" width="6" height="27" fill="white" opacity="0.9" rx="1"/>
  <rect x="67" y="38" width="6" height="34" fill="white" opacity="0.9" rx="1"/>
  
  <!-- Trend Line -->
  <path d="M23 65 L33 53 L42 56 L50 40 L62 42 L68 37 L73 30" 
        stroke="white" 
        stroke-width="2" 
        fill="none" 
        stroke-linecap="round"
        stroke-linejoin="round"
        opacity="0.8"/>
  
  <!-- Text "Finance Hub" -->
  <text x="110" y="45" font-family="Arial, sans-serif" font-size="32" font-weight="bold" fill="#1e293b">
    Finance
  </text>
  <text x="110" y="75" font-family="Arial, sans-serif" font-size="32" font-weight="bold" fill="#2563eb">
    Hub
  </text>
</svg>
